<?xml version="1.0" encoding="UTF-8"?>
<svg xmlns="http://www.w3.org/2000/svg" viewBox="-24 88 850 438" role="img" aria-labelledby="title desc" shape-rendering="geometricPrecision">
  <title id="title">Chai wordmark monochrome</title>
  <desc id="desc">Monochrome exact Devanagari Chai wordmark.</desc>
  <defs>
<path id="word-glyph-0" d="M 332.289062 -282.113281 L 279.039062 -282.113281 L 279.039062 0 L 238.078125 0 L 238.078125 -79.359375 C 228.863281 -71.851562 217.855469 -66.046875 205.054688 -61.953125 C 192.257812 -57.855469 178.859375 -55.808594 164.863281 -55.808594 C 136.875 -55.808594 114.089844 -63.230469 96.511719 -78.078125 C 78.933594 -92.929688 70.144531 -112.8125 70.144531 -137.726562 C 70.144531 -150.699219 72.617188 -161.878906 77.566406 -171.265625 C 82.515625 -180.652344 88.574219 -188.074219 95.742188 -193.535156 L 19.457031 -192.511719 L 19.457031 -229.375 L 199.167969 -229.375 L 195.585938 -193.023438 L 179.199219 -193.023438 C 159.402344 -193.023438 143.105469 -188.671875 130.304688 -179.96875 C 117.503906 -171.265625 111.105469 -157.867188 111.105469 -139.777344 C 111.105469 -124.757812 115.882812 -113.152344 125.441406 -104.960938 C 134.996094 -96.769531 147.113281 -92.671875 161.792969 -92.671875 C 177.492188 -92.671875 191.828125 -96.257812 204.800781 -103.425781 C 217.769531 -110.59375 228.863281 -119.464844 238.078125 -130.046875 L 238.078125 -282.113281 L 0 -282.113281 L 0 -318.464844 L 332.289062 -318.464844 Z M 332.289062 -282.113281 "/>
<path id="word-glyph-1" d="M 87.039062 -282.113281 L 87.039062 0 L 45.566406 0 L 45.566406 -282.113281 L 0 -282.113281 L 0 -318.464844 L 139.777344 -318.464844 L 139.777344 -282.113281 Z M 87.039062 -282.113281 "/>
<path id="word-glyph-2" d="M 304.128906 -318.464844 L 304.128906 -282.113281 L 251.390625 -282.113281 L 251.390625 0 L 209.921875 0 L 209.921875 -88.574219 C 201.046875 -82.433594 190.804688 -77.398438 179.199219 -73.472656 C 167.59375 -69.546875 153.941406 -67.585938 138.238281 -67.585938 C 105.128906 -67.585938 78.847656 -77.140625 59.390625 -96.257812 C 39.9375 -115.371094 25.769531 -144.382812 16.894531 -183.296875 C 43.179688 -188.074219 62.121094 -194.476562 73.726562 -202.496094 C 85.332031 -210.515625 91.136719 -221.355469 91.136719 -235.007812 C 91.136719 -243.882812 89.089844 -252.332031 84.992188 -260.351562 C 80.894531 -268.375 75.433594 -275.625 68.609375 -282.113281 L 0 -282.113281 L 0 -318.464844 Z M 68.097656 -157.183594 C 74.238281 -139.433594 82.6875 -126.121094 93.441406 -117.246094 C 104.191406 -108.375 118.953125 -103.9375 137.726562 -103.9375 C 153.429688 -103.9375 167.167969 -107.433594 178.945312 -114.433594 C 190.71875 -121.429688 201.046875 -129.707031 209.921875 -139.265625 L 209.921875 -282.113281 L 113.152344 -282.113281 C 125.78125 -266.070312 132.097656 -248.832031 132.097656 -230.398438 C 132.097656 -212.308594 126.976562 -197.375 116.734375 -185.601562 C 106.496094 -173.824219 90.28125 -164.351562 68.097656 -157.183594 Z M 68.097656 -157.183594 "/>
    <mask id="word-timeline-mask" maskUnits="userSpaceOnUse" x="-40" y="80" width="900" height="480">
      <rect x="-40" y="80" width="900" height="480" fill="white"/>
      <rect x="218" y="137" width="7" height="56" rx="3.5" fill="black"/>
      <rect x="414" y="137" width="7" height="56" rx="3.5" fill="black"/>
      <rect x="646" y="137" width="7" height="56" rx="3.5" fill="black"/>
    </mask>
  </defs>

  <g id="chai-word-geometry" fill="#111827" mask="url(#word-timeline-mask)">
    <use href="#word-glyph-0" transform="translate(0 458.75)"/>
<use href="#word-glyph-1" transform="translate(325.125 458.75)"/>
<use href="#word-glyph-2" transform="translate(457.734375 458.75)"/>
  </g>
  <path id="chai-amber-pulse" d="M84 382 C128 410 166 393 196 365 C215 347 235 341 258 347" fill="none" stroke="#111827" stroke-width="18" stroke-linecap="round" stroke-linejoin="round"/>
  <path id="chai-playhead" d="M470 118 V478" fill="none" stroke="#111827" stroke-width="5" stroke-linecap="round"/>
  <circle id="chai-playhead-cap" cx="470" cy="118" r="5" fill="#111827"/>
</svg>
