<?xml version="1.0" encoding="UTF-8"?>
<svg xmlns="http://www.w3.org/2000/svg" viewBox="-24 88 420 438" role="img" aria-labelledby="title desc" shape-rendering="geometricPrecision">
  <title id="title">Chai compact symbol</title>
  <desc id="desc">Compact Devanagari Ch symbol with timeline, playhead, and warmth pulse.</desc>
  <defs>
<path id="symbol-glyph-0" d="M 350.71875 -269.3125 L 301.566406 -269.3125 L 301.566406 0 L 241.664062 0 L 241.664062 -68.097656 C 221.183594 -55.125 196.949219 -48.640625 168.960938 -48.640625 C 139.265625 -48.640625 115.113281 -55.980469 96.511719 -70.65625 C 77.910156 -85.332031 68.609375 -104.960938 68.609375 -129.535156 C 68.609375 -140.800781 70.570312 -150.527344 74.496094 -158.71875 C 78.421875 -166.910156 83.285156 -173.398438 89.089844 -178.175781 L 18.433594 -177.152344 L 18.433594 -226.304688 L 206.847656 -226.304688 L 202.238281 -177.664062 L 183.808594 -177.664062 C 166.742188 -177.664062 153.171875 -174.25 143.105469 -167.425781 C 133.035156 -160.597656 128 -150.1875 128 -136.191406 C 128 -124.246094 132.011719 -115.03125 140.03125 -108.542969 C 148.054688 -102.058594 158.890625 -98.816406 172.542969 -98.816406 C 186.878906 -98.816406 200.019531 -102.144531 211.96875 -108.800781 C 223.914062 -115.457031 233.8125 -123.734375 241.664062 -133.632812 L 241.664062 -269.3125 L 0 -269.3125 L 0 -318.464844 L 350.71875 -318.464844 Z M 350.71875 -269.3125 "/>
    <mask id="symbol-timeline-mask" maskUnits="userSpaceOnUse" x="-40" y="80" width="440" height="480">
      <rect x="-40" y="80" width="440" height="480" fill="white"/>
      <rect x="170" y="137" width="7" height="56" rx="3.5" fill="black"/>
    </mask>
  </defs>

  <g id="chai-symbol-geometry" fill="#F5EFE2" mask="url(#symbol-timeline-mask)">
    <use href="#symbol-glyph-0" transform="translate(0 458.75)"/>
  </g>
  <path id="chai-symbol-pulse" d="M74 382 C116 408 154 394 184 366 C202 350 221 343 244 348" fill="none" stroke="#F2B33F" stroke-width="18" stroke-linecap="round" stroke-linejoin="round"/>
  <path id="chai-symbol-playhead" d="M322 118 V478" fill="none" stroke="#19D9EA" stroke-width="5" stroke-linecap="round"/>
  <circle id="chai-symbol-playhead-cap" cx="322" cy="118" r="5" fill="#19D9EA"/>
</svg>
