<?xml version="1.0" encoding="UTF-8"?>
<svg xmlns="http://www.w3.org/2000/svg" xmlns:xlink="http://www.w3.org/1999/xlink" width="995" height="234.71875" viewBox="0 0 995 234.71875">
<defs>
<g>
<g id="glyph-0-0">
<path d="M 72 -110.699219 C 60.359375 -110.699219 51.179688 -106.558594 44.460938 -98.28125 C 37.738281 -90 34.378906 -78.601562 34.378906 -64.078125 C 34.378906 -49.558594 37.558594 -38.21875 43.921875 -30.058594 C 50.28125 -21.898438 59.878906 -17.820312 72.71875 -17.820312 C 78.238281 -17.820312 83.578125 -18.421875 88.738281 -19.621094 C 93.898438 -20.820312 99 -22.261719 104.039062 -23.941406 L 104.039062 -4.140625 C 99 -2.101562 93.75 -0.601562 88.289062 0.359375 C 82.828125 1.320312 76.621094 1.800781 69.660156 1.800781 C 56.21875 1.800781 45.121094 -0.929688 36.359375 -6.390625 C 27.601562 -11.851562 21.058594 -19.53125 16.738281 -29.429688 C 12.421875 -39.328125 10.261719 -50.941406 10.261719 -64.261719 C 10.261719 -77.21875 12.660156 -88.648438 17.460938 -98.550781 C 22.261719 -108.449219 29.25 -116.21875 38.429688 -121.859375 C 47.609375 -127.5 58.859375 -130.320312 72.179688 -130.320312 C 78.660156 -130.320312 85.109375 -129.628906 91.53125 -128.25 C 97.949219 -126.871094 103.859375 -124.859375 109.261719 -122.21875 L 101.339844 -103.320312 C 97.019531 -105.359375 92.460938 -107.101562 87.660156 -108.539062 C 82.859375 -109.980469 77.640625 -110.699219 72 -110.699219 Z M 72 -110.699219 "/>
</g>
<g id="glyph-0-1">
<path d="M 36.898438 -104.578125 C 36.898438 -100.261719 36.78125 -96.421875 36.539062 -93.058594 C 36.300781 -89.699219 36.058594 -86.941406 35.820312 -84.78125 L 37.078125 -84.78125 C 40.199219 -89.820312 44.28125 -93.511719 49.320312 -95.851562 C 54.359375 -98.191406 59.941406 -99.359375 66.058594 -99.359375 C 77.101562 -99.359375 85.738281 -96.539062 91.980469 -90.898438 C 98.21875 -85.261719 101.339844 -76.140625 101.339844 -63.539062 L 101.339844 0 L 78.480469 0 L 78.480469 -58.859375 C 78.480469 -73.621094 72.539062 -81 60.660156 -81 C 51.539062 -81 45.300781 -78.089844 41.941406 -72.269531 C 38.578125 -66.449219 36.898438 -58.199219 36.898438 -47.519531 L 36.898438 0 L 14.039062 0 L 14.039062 -136.800781 L 36.898438 -136.800781 Z M 36.898438 -104.578125 "/>
</g>
<g id="glyph-0-2">
<path d="M 55.078125 -99.359375 C 79.558594 -99.359375 91.800781 -88.078125 91.800781 -65.519531 L 91.800781 0 L 75.601562 0 L 71.28125 -13.5 L 70.558594 -13.5 C 66.238281 -8.21875 61.769531 -4.351562 57.148438 -1.890625 C 52.53125 0.570312 46.140625 1.800781 37.980469 1.800781 C 29.21875 1.800781 21.960938 -0.628906 16.199219 -5.488281 C 10.441406 -10.351562 7.558594 -17.941406 7.558594 -28.261719 C 7.558594 -48.058594 22.621094 -58.5 52.738281 -59.578125 L 69.121094 -60.121094 L 69.121094 -64.261719 C 69.121094 -70.859375 67.621094 -75.511719 64.621094 -78.210938 C 61.621094 -80.910156 57.480469 -82.261719 52.199219 -82.261719 C 47.519531 -82.261719 42.871094 -81.511719 38.25 -80.011719 C 33.628906 -78.511719 29.160156 -76.800781 24.839844 -74.878906 L 18 -90.71875 C 22.800781 -93.238281 28.351562 -95.308594 34.648438 -96.929688 C 40.949219 -98.550781 47.761719 -99.359375 55.078125 -99.359375 Z M 57.238281 -45.71875 C 47.398438 -45.359375 40.558594 -43.738281 36.71875 -40.859375 C 32.878906 -37.980469 30.960938 -33.960938 30.960938 -28.800781 C 30.960938 -24.121094 32.339844 -20.699219 35.101562 -18.539062 C 37.859375 -16.378906 41.398438 -15.300781 45.71875 -15.300781 C 52.320312 -15.300781 57.871094 -17.191406 62.371094 -20.96875 C 66.871094 -24.75 69.121094 -30.359375 69.121094 -37.800781 L 69.121094 -46.078125 Z M 57.238281 -45.71875 "/>
</g>
<g id="glyph-0-3">
<path d="M 25.738281 -135.359375 C 29.101562 -135.359375 32.039062 -134.460938 34.558594 -132.660156 C 37.078125 -130.859375 38.339844 -127.738281 38.339844 -123.300781 C 38.339844 -118.859375 37.078125 -115.738281 34.558594 -113.941406 C 32.039062 -112.140625 29.101562 -111.238281 25.738281 -111.238281 C 22.140625 -111.238281 19.109375 -112.140625 16.648438 -113.941406 C 14.191406 -115.738281 12.960938 -118.859375 12.960938 -123.300781 C 12.960938 -127.738281 14.191406 -130.859375 16.648438 -132.660156 C 19.109375 -134.460938 22.140625 -135.359375 25.738281 -135.359375 Z M 36.898438 -97.558594 L 36.898438 0 L 14.039062 0 L 14.039062 -97.558594 Z M 36.898438 -97.558594 "/>
</g>
<g id="glyph-0-4">
</g>
<g id="glyph-0-5">
<path d="M 93.238281 -36.179688 C 93.238281 -28.738281 91.410156 -22.171875 87.75 -16.46875 C 84.089844 -10.769531 78.71875 -6.300781 71.640625 -3.058594 C 64.558594 0.179688 55.859375 1.800781 45.539062 1.800781 C 37.738281 1.800781 30.871094 1.230469 24.929688 0.0898438 C 18.988281 -1.050781 13.558594 -2.761719 8.640625 -5.039062 L 8.640625 -26.460938 C 14.039062 -23.941406 20.070312 -21.839844 26.730469 -20.160156 C 33.390625 -18.480469 39.898438 -17.640625 46.261719 -17.640625 C 54.179688 -17.640625 60.121094 -19.140625 64.078125 -22.140625 C 68.039062 -25.140625 70.019531 -29.101562 70.019531 -34.019531 C 70.019531 -37.5 69.148438 -40.441406 67.410156 -42.839844 C 65.671875 -45.238281 62.789062 -47.519531 58.769531 -49.679688 C 54.75 -51.839844 49.320312 -54.238281 42.480469 -56.878906 C 35.519531 -59.640625 29.609375 -62.699219 24.75 -66.058594 C 19.890625 -69.421875 16.230469 -73.46875 13.769531 -78.210938 C 11.308594 -82.949219 10.078125 -88.800781 10.078125 -95.761719 C 10.078125 -103.078125 11.910156 -109.320312 15.570312 -114.480469 C 19.230469 -119.640625 24.359375 -123.570312 30.960938 -126.269531 C 37.558594 -128.96875 45.179688 -130.320312 53.820312 -130.320312 C 61.378906 -130.320312 68.25 -129.539062 74.429688 -127.980469 C 80.609375 -126.421875 86.21875 -124.558594 91.261719 -122.398438 L 84.238281 -103.5 C 79.320312 -105.660156 74.21875 -107.460938 68.941406 -108.898438 C 63.660156 -110.339844 58.441406 -111.058594 53.28125 -111.058594 C 46.558594 -111.058594 41.550781 -109.679688 38.25 -106.921875 C 34.949219 -104.160156 33.300781 -100.621094 33.300781 -96.300781 C 33.300781 -92.820312 34.140625 -89.878906 35.820312 -87.480469 C 37.5 -85.078125 40.320312 -82.800781 44.28125 -80.640625 C 48.238281 -78.480469 53.578125 -76.078125 60.300781 -73.441406 C 67.378906 -70.679688 73.351562 -67.679688 78.210938 -64.441406 C 83.070312 -61.199219 86.789062 -57.359375 89.371094 -52.921875 C 91.949219 -48.480469 93.238281 -42.898438 93.238281 -36.179688 Z M 93.238281 -36.179688 "/>
</g>
<g id="glyph-0-6">
<path d="M 52.558594 -16.558594 C 55.199219 -16.558594 57.78125 -16.800781 60.300781 -17.28125 C 62.820312 -17.761719 65.101562 -18.359375 67.140625 -19.078125 L 67.140625 -2.160156 C 64.621094 -0.960938 61.621094 0 58.140625 0.71875 C 54.660156 1.441406 50.820312 1.800781 46.621094 1.800781 C 40.980469 1.800781 35.910156 0.871094 31.410156 -0.988281 C 26.910156 -2.851562 23.308594 -6.058594 20.609375 -10.621094 C 17.910156 -15.179688 16.558594 -21.601562 16.558594 -29.878906 L 16.558594 -80.28125 L 3.601562 -80.28125 L 3.601562 -90.359375 L 18 -98.28125 L 25.199219 -118.980469 L 39.601562 -118.980469 L 39.601562 -97.558594 L 66.238281 -97.558594 L 66.238281 -80.28125 L 39.601562 -80.28125 L 39.601562 -30.960938 C 39.601562 -26.160156 40.800781 -22.558594 43.199219 -20.160156 C 45.601562 -17.761719 48.71875 -16.558594 52.558594 -16.558594 Z M 52.558594 -16.558594 "/>
</g>
<g id="glyph-0-7">
<path d="M 100.800781 -97.558594 L 100.800781 0 L 82.980469 0 L 79.738281 -12.601562 L 78.660156 -12.601562 C 75.539062 -7.558594 71.21875 -3.898438 65.699219 -1.621094 C 60.179688 0.660156 54.359375 1.800781 48.238281 1.800781 C 37.320312 1.800781 28.769531 -1.019531 22.589844 -6.660156 C 16.410156 -12.300781 13.320312 -21.359375 13.320312 -33.839844 L 13.320312 -97.558594 L 36.179688 -97.558594 L 36.179688 -38.519531 C 36.179688 -24 42.121094 -16.738281 54 -16.738281 C 63.121094 -16.738281 69.390625 -19.589844 72.808594 -25.289062 C 76.230469 -30.988281 77.941406 -39.238281 77.941406 -50.039062 L 77.941406 -97.558594 Z M 100.800781 -97.558594 "/>
</g>
<g id="glyph-0-8">
<path d="M 46.980469 1.800781 C 35.699219 1.800781 26.550781 -2.460938 19.53125 -10.980469 C 12.511719 -19.5 9 -32.039062 9 -48.601562 C 9 -65.398438 12.539062 -78.058594 19.621094 -86.578125 C 26.699219 -95.101562 36 -99.359375 47.519531 -99.359375 C 54.71875 -99.359375 60.570312 -97.980469 65.070312 -95.21875 C 69.570312 -92.460938 73.199219 -89.101562 75.960938 -85.140625 L 76.859375 -85.140625 C 76.621094 -87.058594 76.351562 -89.789062 76.050781 -93.328125 C 75.75 -96.871094 75.601562 -100.019531 75.601562 -102.78125 L 75.601562 -136.800781 L 98.640625 -136.800781 L 98.640625 0 L 80.820312 0 L 76.5 -12.78125 L 75.601562 -12.78125 C 72.960938 -8.699219 69.359375 -5.25 64.800781 -2.429688 C 60.238281 0.390625 54.300781 1.800781 46.980469 1.800781 Z M 53.820312 -16.738281 C 62.21875 -16.738281 68.128906 -19.109375 71.550781 -23.851562 C 74.96875 -28.589844 76.738281 -35.820312 76.859375 -45.539062 L 76.859375 -48.421875 C 76.859375 -58.859375 75.210938 -66.871094 71.910156 -72.449219 C 68.609375 -78.03125 62.519531 -80.820312 53.640625 -80.820312 C 46.800781 -80.820312 41.550781 -77.96875 37.890625 -72.269531 C 34.230469 -66.570312 32.398438 -58.558594 32.398438 -48.238281 C 32.398438 -37.921875 34.230469 -30.089844 37.890625 -24.75 C 41.550781 -19.410156 46.859375 -16.738281 53.820312 -16.738281 Z M 53.820312 -16.738281 "/>
</g>
<g id="glyph-0-9">
<path d="M 102.058594 -48.960938 C 102.058594 -32.761719 97.859375 -20.25 89.460938 -11.429688 C 81.058594 -2.609375 69.660156 1.800781 55.261719 1.800781 C 46.378906 1.800781 38.460938 -0.179688 31.5 -4.140625 C 24.539062 -8.101562 19.050781 -13.859375 15.03125 -21.421875 C 11.011719 -28.980469 9 -38.160156 9 -48.960938 C 9 -65.160156 13.171875 -77.609375 21.511719 -86.308594 C 29.851562 -95.011719 41.28125 -99.359375 55.800781 -99.359375 C 64.800781 -99.359375 72.78125 -97.410156 79.738281 -93.511719 C 86.699219 -89.609375 92.160156 -83.910156 96.121094 -76.410156 C 100.078125 -68.910156 102.058594 -59.761719 102.058594 -48.960938 Z M 32.398438 -48.960938 C 32.398438 -38.640625 34.230469 -30.570312 37.890625 -24.75 C 41.550781 -18.929688 47.460938 -16.019531 55.621094 -16.019531 C 63.660156 -16.019531 69.511719 -18.929688 73.171875 -24.75 C 76.828125 -30.570312 78.660156 -38.640625 78.660156 -48.960938 C 78.660156 -59.28125 76.828125 -67.289062 73.171875 -72.988281 C 69.511719 -78.691406 63.601562 -81.539062 55.441406 -81.539062 C 47.398438 -81.539062 41.550781 -78.691406 37.890625 -72.988281 C 34.230469 -67.289062 32.398438 -59.28125 32.398438 -48.960938 Z M 32.398438 -48.960938 "/>
</g>
</g>
</defs>
<g fill="rgb(96.078431%, 93.72549%, 88.627451%)" fill-opacity="1">
<use xlink:href="#glyph-0-0" x="0" y="161.28125"/>
<use xlink:href="#glyph-0-1" x="114.84375" y="161.28125"/>
<use xlink:href="#glyph-0-2" x="229.6875" y="161.28125"/>
<use xlink:href="#glyph-0-3" x="334.984375" y="161.28125"/>
<use xlink:href="#glyph-0-4" x="385.921875" y="161.28125"/>
<use xlink:href="#glyph-0-5" x="432.71875" y="161.28125"/>
<use xlink:href="#glyph-0-6" x="533.515625" y="161.28125"/>
<use xlink:href="#glyph-0-7" x="605.328125" y="161.28125"/>
<use xlink:href="#glyph-0-8" x="720.171875" y="161.28125"/>
<use xlink:href="#glyph-0-3" x="832.859375" y="161.28125"/>
<use xlink:href="#glyph-0-9" x="883.796875" y="161.28125"/>
</g>
</svg>
