<?xml version="1.0" encoding="UTF-8"?>
<svg xmlns="http://www.w3.org/2000/svg" viewBox="0 0 600 270" role="img" aria-labelledby="title desc" shape-rendering="geometricPrecision">
  <title id="title">Chai approved wordmark</title><desc id="desc">Custom Devanagari Warm Timeline wordmark</desc>
<g id="timeline-layer"><path d="M 223 40.500 L 223 45 124 45 L 25 45 25 52 L 25 59 124 59 L 223 59 223 63 C 223 66.905, 223.083 67, 226.500 67 C 229.917 67, 230 66.905, 230 63 L 230 59 279.500 59 L 329 59 329 63 C 329 66.905, 329.083 67, 332.500 67 C 335.917 67, 336 66.905, 336 63 L 336 59 398.500 59 L 461 59 461 63 C 461 66.905, 461.083 67, 464.500 67 C 467.917 67, 468 66.905, 468 63 L 468 59 520 59 L 572 59 572 52 L 572 45 520 45 L 468 45 468 40.500 C 468 36.024, 467.981 36, 464.500 36 C 461.019 36, 461 36.024, 461 40.500 L 461 45 398.500 45 L 336 45 336 40.500 C 336 36.024, 335.981 36, 332.500 36 C 329.019 36, 329 36.024, 329 40.500 L 329 45 279.500 45 L 230 45 230 40.500 C 230 36.024, 229.981 36, 226.500 36 C 223.019 36, 223 36.024, 223 40.500" stroke="none" fill="#F5EFE2" fill-rule="evenodd"/></g>
<g id="first-symbol-layer"><path d="M 264.832 113.250 C 264.739 134.838, 264.673 153.850, 264.685 155.500 C 264.697 157.150, 264.772 177.287, 264.853 200.250 L 265 242 280.500 242 L 296 242 296 158 L 296 74 280.500 74 L 265 74 264.832 113.250 M 40 112.500 L 40 122 62.500 122 C 74.875 122, 85 122.202, 85 122.448 C 85 122.695, 83.810 124.158, 82.356 125.698 C 78.044 130.266, 74.218 136.850, 71.784 143.891 C 69.818 149.581, 69.506 152.447, 69.541 164.500 C 69.577 177.139, 69.850 179.278, 72.348 186.500 C 75.972 196.976, 81.338 205.907, 89.084 214.355 C 99.928 226.181, 111.860 233.508, 128.712 238.688 C 136.989 241.232, 138.634 241.389, 157 241.380 C 179.736 241.369, 185.901 240.134, 202.250 232.317 L 212 227.655 212 223.720 C 212 220.363, 211.743 219.893, 210.250 220.513 C 194.334 227.127, 166.341 229.164, 149.667 224.923 C 128.730 219.597, 113.763 207.999, 105.399 190.620 C 100.967 181.411, 99.707 174.631, 100.188 162.576 C 100.539 153.762, 100.988 151.672, 103.777 145.893 C 107.397 138.392, 113.320 132.392, 120.893 128.554 C 130.939 123.463, 135.637 122.765, 163.250 122.256 L 189 121.782 189 112.391 L 189 103 114.500 103 L 40 103 40 112.500" stroke="none" fill="#F5EFE2" fill-rule="evenodd"/></g>
<g id="rest-symbol-layer"><path d="M 397.913 71.250 C 401.913 78.419, 403.274 84.104, 403.182 93.259 C 403.082 103.234, 399.786 111.056, 393.013 117.392 C 383.998 125.823, 375.163 128.729, 355.619 129.689 L 342.739 130.321 343.279 141.911 C 343.907 155.364, 346.462 166.186, 351.543 176.911 C 361.359 197.629, 377.761 211.954, 399.762 219.024 C 404.856 220.661, 409.244 222, 409.512 222 C 409.780 222, 410 216.136, 410 208.969 C 410 197.452, 409.797 195.868, 408.250 195.339 C 407.288 195.010, 403.263 193.220, 399.306 191.360 C 386.951 185.553, 375.238 171.790, 372.192 159.500 C 371.647 157.300, 370.938 154.328, 370.618 152.896 L 370.035 150.292 379.268 149.681 C 389.468 149.005, 397.355 147.145, 405.744 143.434 L 411.283 140.985 410.642 134.846 C 410.289 131.469, 410 114.598, 410 97.353 L 410 66 402.491 66 L 394.983 66 397.913 71.250 M 415.278 101.503 C 415.155 121.184, 415.444 137, 415.928 137 C 416.407 137, 419.083 134.502, 421.873 131.448 C 436.878 115.031, 438.997 89.696, 426.937 70.902 C 424 66.326, 423.516 66, 419.646 66.003 L 415.500 66.005 415.278 101.503 M 496.790 117.250 L 496.500 160.500 493.526 166 C 491.891 169.025, 487.391 174.657, 483.526 178.514 C 475.268 186.758, 464.117 193.029, 452.373 196.033 C 444.668 198.003, 430.038 198.926, 420.570 198.038 L 415.641 197.576 415.216 210.211 L 414.791 222.846 419.537 223.558 C 427.728 224.786, 450.735 223.374, 459.284 221.118 C 469.187 218.505, 482.373 212.336, 490.594 206.471 L 497 201.899 497 221.949 L 497 242 513 242 L 529 242 529 158 L 529 74 513.040 74 L 497.080 74 496.790 117.250" stroke="none" fill="#F5EFE2" fill-rule="evenodd"/></g>
<g id="amber-layer"><path d="M 234.322 151.098 C 221.861 153.179, 210.614 159.109, 191.313 173.776 C 175.448 185.832, 169.131 189.727, 160.108 193.019 C 150.286 196.603, 143.092 197.462, 134.983 196.019 C 128.248 194.821, 118.809 191.042, 115.840 188.355 C 114.897 187.502, 113.600 187.129, 112.956 187.527 C 112.092 188.061, 112.140 188.469, 113.143 189.089 C 113.889 189.550, 114.513 190.281, 114.529 190.714 C 114.544 191.146, 116.525 193.637, 118.930 196.248 C 124.203 201.972, 134.091 207.266, 137.781 206.340 C 139.361 205.944, 140.066 206.084, 139.675 206.717 C 138.714 208.272, 149.276 209.005, 156.313 207.873 C 169.298 205.782, 178.825 200.567, 199.045 184.480 C 222.778 165.599, 234.634 159.736, 252.854 157.871 C 265.043 156.624, 265.350 156.522, 264.086 154.162 C 262.182 150.604, 246.779 149.019, 234.322 151.098" stroke="none" fill="#F2B33F" fill-rule="evenodd"/></g>
<g id="cyan-layer"><path d="M 410.993 35.500 C 410.990 44.575, 410.987 84.400, 410.987 124 C 410.987 276.859, 410.737 260, 413 260 C 414.989 260, 415 259.333, 415 139.500 C 415 19.667, 414.989 19, 413 19 C 411.081 19, 411 19.669, 410.993 35.500" stroke="none" fill="#19D9EA" fill-rule="evenodd"/></g>
</svg>
