<?xml version="1.0" encoding="UTF-8"?>
<svg xmlns="http://www.w3.org/2000/svg" viewBox="0 0 512 512" role="img" aria-labelledby="title desc" shape-rendering="geometricPrecision">
  <title id="title">Chai monochrome compact symbol</title><desc id="desc">One-colour faithful compact symbol</desc>
  <g fill="currentColor">
<g id="icon-ivory-layer"><path d="M 277.554 119.192 C 277.271 120.461, 276.918 123.075, 276.770 125 L 276.500 128.500 202.600 129 L 128.700 129.500 128.700 137.500 L 128.700 145.500 202.850 145.756 L 277 146.013 277.014 149.256 C 277.041 155.717, 277.878 157, 282.064 157 L 285.895 157 286.198 151.750 L 286.500 146.500 322.250 146.237 L 358 145.975 358 139.069 C 358 135.271, 357.740 131.485, 357.421 130.655 C 356.922 129.355, 352.166 129.132, 322.913 129.039 C 304.253 128.980, 288.335 128.682, 287.541 128.378 C 286.602 128.017, 285.994 126.021, 285.799 122.662 L 285.500 117.500 281.784 117.192 C 278.595 116.927, 277.994 117.211, 277.554 119.192 M 368.625 132.125 C 367.848 136.012, 367.843 140.814, 368.615 143.690 L 369.202 145.880 401.851 145.690 L 434.500 145.500 434.790 137.250 L 435.081 129 402.165 129 L 369.250 129 368.625 132.125 M 368.653 180.208 C 367.504 189.775, 367.891 388, 369.059 388 C 369.641 388, 369.840 388.450, 369.500 389 C 369.100 389.647, 373.490 390, 381.941 390 L 395 390 395 282.604 L 395 175.208 382.144 175.062 L 369.289 174.915 368.653 180.208 M 142.015 200.833 C 140.848 201.217, 140.719 207.370, 141.647 218.349 L 142.293 226 162.588 226 C 181.571 226, 186.174 226.616, 182.670 228.689 C 180.025 230.253, 174.008 240.597, 171.139 248.510 C 161.248 275.795, 166.473 309.700, 184.297 333.888 C 199.875 355.029, 222.749 367.486, 252.500 371.032 C 260.791 372.020, 264.294 371.968, 273 370.724 C 278.775 369.900, 286.195 368.477, 289.489 367.563 C 298 365.201, 312.429 358.090, 319.750 352.649 C 325.988 348.013, 326 347.995, 326 342.919 C 326 340.122, 325.663 337.983, 325.250 338.167 C 324.837 338.350, 321.575 339.919, 318 341.652 C 304.108 348.390, 292.143 351, 275.155 351 C 261.493 351, 250.214 348.383, 238.114 342.405 C 229.254 338.028, 216.146 325.528, 210.846 316.400 C 206.737 309.325, 203 300.466, 203 297.801 C 203 296.738, 202.532 294.994, 201.960 293.926 C 201.389 292.858, 200.882 286.475, 200.834 279.742 C 200.730 265.159, 202.827 256.666, 208.816 247.416 C 215.517 237.065, 223.816 231.244, 236.496 228.001 C 243.385 226.239, 247.589 226, 271.660 226 L 299 226 299 213.500 L 299 201 242.750 200.931 C 211.813 200.893, 176.719 200.781, 164.765 200.681 C 152.811 200.582, 142.573 200.650, 142.015 200.833" stroke="none" fill="currentColor" fill-rule="evenodd"/></g>
<g id="icon-amber-layer"><path d="M 323 273.100 C 307.879 277.072, 299.959 281.582, 282.607 296.100 C 276.470 301.235, 267.015 307.135, 260.814 309.698 C 249.737 314.277, 233.100 313.723, 222.873 308.434 C 220.762 307.343, 220.045 307.305, 219.657 308.265 C 219.341 309.048, 219.129 308.916, 219.079 307.905 C 219.036 307.028, 218.100 305.495, 217 304.500 C 215.406 303.057, 215 302.986, 215 304.150 C 215 304.954, 217.457 308.590, 220.461 312.232 C 224.903 317.616, 227.365 319.566, 233.653 322.676 C 240.714 326.168, 242.217 326.529, 250.988 326.837 C 266.553 327.384, 275.412 323.704, 292.506 309.590 C 307.812 296.953, 310.401 295.007, 317 291.182 C 320.575 289.109, 325.975 286.418, 329 285.200 C 335.251 282.683, 348.234 280, 354.158 280 C 357.715 280, 358.105 279.760, 357.820 277.750 C 357.556 275.891, 356.371 275.213, 351 273.848 C 343.888 272.040, 328.589 271.632, 323 273.100" stroke="none" fill="currentColor" fill-rule="evenodd"/></g>
<g id="icon-cyan-layer"><path d="M 358.958 117.500 C 358.935 123.275, 358.917 132.275, 358.917 137.500 C 358.917 142.725, 358.935 201.675, 358.958 268.500 L 359 390 362.982 390 L 366.965 390 367.008 283.250 C 367.069 132.423, 367.069 129.692, 367.033 117.750 L 367 107 363 107 L 359 107 358.958 117.500" stroke="none" fill="currentColor" fill-rule="evenodd"/></g>
  </g>
</svg>
